<svg width="20" height="60" viewBox="0 0 20 60" fill="none" xmlns="http://www.w3.org/2000/svg">
<path d="M19.6587 59L7.70466 59.344C7.70466 57.796 7.61866 55.7893 7.44667 53.324C7.332 50.8013 7.10266 47.9633 6.75866 44.81C6.472 41.6567 6.09933 38.3313 5.64066 34.834C5.23933 31.2793 4.752 27.6673 4.17866 23.998C3.60533 20.3287 2.97466 16.7453 2.28666 13.248C1.59866 9.75066 0.853331 6.48266 0.0506642 3.444L12.1767 0.175999C13.3233 4.01733 14.298 8.14533 15.1007 12.56C15.9607 16.9747 16.6773 21.4467 17.2507 25.976C17.824 30.5053 18.2827 34.8627 18.6267 39.048C19.028 43.2333 19.286 47.046 19.4007 50.486C19.5727 53.926 19.6587 56.764 19.6587 59Z" fill="#262424" fill-opacity="0.37"/>
</svg>
