<svg width="42" height="60" viewBox="0 0 42 60" fill="none" xmlns="http://www.w3.org/2000/svg">
<path d="M20.2444 59L8.63435 59.344C8.63435 57.796 8.54835 55.7893 8.37635 53.324C8.26169 50.8013 8.03235 47.9633 7.68835 44.81C7.40169 41.6567 7.02902 38.3313 6.57035 34.834C6.16902 31.2793 5.68169 27.6673 5.10835 23.998C4.53502 20.3287 3.90435 16.7453 3.21635 13.248C2.52835 9.75066 1.78302 6.48266 0.980352 3.444L12.7624 0.175999C13.909 4.01733 14.8837 8.14533 15.6864 12.56C16.5464 16.9747 17.263 21.4467 17.8364 25.976C18.4097 30.5053 18.8684 34.8627 19.2124 39.048C19.6137 43.2333 19.8717 47.046 19.9864 50.486C20.1584 53.926 20.2444 56.764 20.2444 59ZM23.0824 22.794C20.789 22.794 18.5817 22.5933 16.4604 22.192C14.3964 21.7907 12.705 21.332 11.3864 20.816V9.12C13.049 9.69333 14.941 10.152 17.0624 10.496C19.1837 10.7827 20.961 10.926 22.3944 10.926C24.057 10.926 25.4044 10.7827 26.4364 10.496C27.4684 10.152 28.2997 9.60733 28.9304 8.862C29.6184 8.11667 30.163 7.11333 30.5644 5.852C30.9657 4.53333 31.3384 2.89933 31.6824 0.949999L41.7444 2.842C41.4577 6.74066 40.7124 10.2093 39.5084 13.248C38.3044 16.2293 36.3837 18.58 33.7464 20.3C31.1664 21.9627 27.6117 22.794 23.0824 22.794Z" fill="#262424" fill-opacity="0.37"/>
</svg>
