<svg width="48" height="60" viewBox="0 0 48 60" fill="none" xmlns="http://www.w3.org/2000/svg">
<path d="M20.3089 59L8.69893 59.344C8.69893 57.796 8.61293 55.7893 8.44093 53.324C8.32626 50.8013 8.09693 47.9633 7.75293 44.81C7.46626 41.6567 7.0936 38.3313 6.63493 34.834C6.17626 31.2793 5.66026 27.6673 5.08693 23.998C4.5136 20.3287 3.88293 16.7453 3.19493 13.248C2.50693 9.75066 1.73293 6.48266 0.87293 3.444L12.8269 0.175999C13.9736 4.01733 14.9769 8.14533 15.8369 12.56C16.6969 16.9747 17.4136 21.4467 17.9869 25.976C18.5603 30.5053 19.0189 34.8627 19.3629 39.048C19.7069 43.2333 19.9363 47.046 20.0509 50.486C20.2229 53.926 20.3089 56.764 20.3089 59ZM20.3089 24.6C18.7609 24.6 17.3563 24.2273 16.0949 23.482C14.8909 22.6793 13.9163 21.7333 13.1709 20.644C12.4829 19.4973 12.0529 18.4367 11.8809 17.462L12.8269 0.175999L15.8369 11.184C16.0089 11.7 16.2383 12.13 16.5249 12.474C16.8689 12.7607 17.2416 12.9613 17.6429 13.076C18.1016 13.1907 18.5029 13.248 18.8469 13.248C19.4203 13.248 19.9363 13.0473 20.3949 12.646C20.8536 12.1873 21.2836 11.27 21.6849 9.894C22.0863 8.518 22.4876 6.42533 22.8889 3.616L32.0909 4.82C31.9763 5.62266 31.8616 6.39666 31.7469 7.142C31.6323 7.88733 31.5176 8.54666 31.4029 9.12C31.3456 9.69333 31.3169 10.1807 31.3169 10.582C31.3169 11.3273 31.5176 11.9007 31.9189 12.302C32.3203 12.7033 32.9796 12.904 33.8969 12.904C34.8143 12.904 35.4736 12.7607 35.8749 12.474C36.3336 12.13 36.6203 11.7 36.7349 11.184C36.9069 10.668 36.9929 10.152 36.9929 9.636C36.9929 8.776 36.8783 7.744 36.6489 6.54C36.4196 5.336 36.1043 4.24666 35.7029 3.272L45.1629 0.433995C45.9083 2.21133 46.5389 4.218 47.0549 6.454C47.5709 8.69 47.8289 10.7253 47.8289 12.56C47.8289 15.0827 47.2843 17.204 46.1949 18.924C45.1056 20.644 43.5863 21.9627 41.6369 22.88C39.7449 23.74 37.5663 24.17 35.1009 24.17C32.2916 24.17 30.1416 23.6253 28.6509 22.536C27.2176 21.4467 26.3289 19.9847 25.9849 18.15H27.9629C27.2749 20.6153 26.1856 22.3067 24.6949 23.224C23.2616 24.1413 21.7996 24.6 20.3089 24.6Z" fill="#262424" fill-opacity="0.37"/>
</svg>
