<svg width="63" height="46" viewBox="0 0 63 46" fill="none" xmlns="http://www.w3.org/2000/svg">
<path d="M5.22745 37.4325L2.8977 37.8925V46H5.7954C13.8597 46 20.0115 43.7834 24.077 39.4105C29.5449 33.5225 28.9944 25.9613 28.977 25.875V2.875C28.977 2.1125 28.6717 1.38124 28.1283 0.842069C27.5848 0.302901 26.8478 0 26.0793 0H5.7954C2.59924 0 0 2.57887 0 5.75V25.875C0 26.6375 0.305293 27.3688 0.848717 27.9079C1.39214 28.4471 2.12918 28.75 2.8977 28.75H14.7145C14.6533 30.1714 14.2253 31.5533 13.4714 32.7635C12.0023 35.0664 9.22917 36.6361 5.22745 37.4325Z" fill="white"/>
<path d="M39.2274 37.4325L36.8977 37.8925V46H39.7954C47.8597 46 54.0115 43.7834 58.077 39.4105C63.5449 33.5225 62.9944 25.9613 62.977 25.875V2.875C62.977 2.1125 62.6717 1.38124 62.1283 0.842069C61.5848 0.302901 60.8478 0 60.0793 0H39.7954C36.5992 0 34 2.57887 34 5.75V25.875C34 26.6375 34.3053 27.3688 34.8487 27.9079C35.3921 28.4471 36.1292 28.75 36.8977 28.75H48.7145C48.6533 30.1714 48.2253 31.5533 47.4714 32.7635C46.0023 35.0664 43.2292 36.6361 39.2274 37.4325Z" fill="white"/>
</svg>
